<?xml version="1.0" encoding="utf-8"?>
<!-- Generator: Adobe Illustrator 24.0.2, SVG Export Plug-In . SVG Version: 6.00 Build 0)  -->
<svg version="1.1" id="Layer_1" xmlns="http://www.w3.org/2000/svg" xmlns:xlink="http://www.w3.org/1999/xlink" x="0px" y="0px"
	 viewBox="0 0 1440 1440" style="enable-background:new 0 0 1440 1440;" xml:space="preserve">
<style type="text/css">
	.st0{fill:#DEDEDE;}
</style>
<rect class="st0" width="1440" height="1440"/>
<path d="M1203.2,208.4v-56.8h-56.8h-56.8h-56.8h-56.8h-56.8h-56.8h-56.8h-56.8v56.8h-56.8v56.8v56.8v56.8v56.8v56.8v56.8h-56.8v56.8
	h-56.8v56.8h-56.8V720h-56.8v56.8h-56.8h-56.8V720h-56.8v-56.8h-56.8v-56.8v-56.8H180v56.8v56.8V720v56.8v56.8h56.8v56.8h56.8v56.8
	h56.8v56.8h56.8v56.8h56.8v56.8v56.8v56.8v56.8h56.8h56.8v-56.8h-56.8v-56.8h56.8v-56.8h56.8v-56.8h56.8h56.8v56.8h56.8h56.8v-56.8
	h-56.8v-56.8h56.8v-56.8h56.8v-56.8v-56.8v-56.8V720v-56.8h56.8V720h56.8v-56.8v-56.8h-56.8h-56.8v-56.8h56.8h56.8h56.8h56.8v-56.8
	h-56.8h-56.8h-56.8v-56.8h56.8h56.8h56.8h56.8h56.8v-56.8v-56.8v-56.8v-56.8H1203.2z M862.1,208.4v56.8h-56.8v-56.8H862.1z"/>
</svg>
