<svg xmlns="http://www.w3.org/2000/svg" xmlns:xlink="http://www.w3.org/1999/xlink" version="1.1" x="0px" y="0px" viewBox="0 0 100 125" enable-background="new 0 0 100 100" xml:space="preserve"><path d="M48.552,18.69c-0.799,0.838-2.472,0.437-3.489,0.991c-1.688,0.917-3.49,3.099-3.839,5.028  c-0.232,1.282,0.02,2.442-0.472,3.645c-0.564,1.379-1.894,3.184-2.864,4.283c-2.009,2.274-1.249,3.363-0.952,6.027  c0.16,1.435,0.225,2.162-0.781,3.197c-0.969,0.997-2.092,1.097-1.782,2.694c0.257,1.329,1.237,1.851,0.989,3.451  c-0.193,1.253-1.086,2.063-1.113,3.328c-0.018,0.884,0.682,8.992-1.624,7.566c-1.687-1.041-0.458-5.813-1.189-7.457  c-0.558-1.255-0.832-2.722-0.684-4.183c0.118-1.157,0.679-2.309,0.327-3.349l-1.268-1.77c-1.143-1.219-2.57-3.535-3.014-5.389  c-0.522-2.179,0.102-4.788-0.469-6.973c-0.579-2.224-2.333-2.595-2.737-5.776c-0.193-1.521,0.508-0.848-0.551-2.192  c-0.592-0.752-1.484-1.452-2.223-2.056c-1.469-1.204-4.212-1.847-5-3.729c-0.51-1.222,0.231-1.784-0.587-3.043  c-0.655-1.008-2.631-2.676-2.353-3.942c1.734-0.212,2.827,2.593,4.414,3.027c1.422,0.389,2.189,0.393,3.329,1.52  c0.917,0.906,0.526-0.172,1.071,0.782c0.342,0.6,1.003,2.882,1.543,3.319c1.212,0.981,2.02,2.664,3.208,3.454  c0.63-0.582,2.378-1.319,3.087-1.785c1.248-0.821,1.7-0.041,1.787-1.707c0.056-1.083-0.383-2.781-0.832-3.76  c-0.499-1.091-0.417-1.611-0.476-2.736c-0.136-2.587,1.805-2.649,2.337-4.674c0.244-0.93-0.877-5.838,0.968-5.327  c1.55,0.428,0.928,5.763,1.525,7.078c0.51,1.123,1.546,1.317,1.787,2.687c0.29,1.651-0.613,2.112-1.387,3.206  c-0.653,0.922-0.905,2.132-0.84,3.283c0.105,1.904,0.38,1.963,1.909,2.386c0.487,0.134,2.019,0.511,2.496,0.559  c1.033,0.104,0.834-0.579,1.66-1c1.237-0.631,1.798-1.206,2.5-2.413c0.614-1.054,1.002-2.487,1.903-3.353  c1.161-1.121,2.286-0.698,3.643-1.082c0.969-0.272,4.47-4.185,5.242-2.546c0.447,0.95-3.685,3.551-4.167,4.41  C49.009,15.402,50.216,16.943,48.552,18.69z M82.145,56.291c-1.473,0.043-2.219-0.134-3.592,0.691  c-1.104,0.666-0.472-0.291-1.226,0.51c-0.476,0.503-1.655,2.564-2.282,2.863c-1.41,0.666-2.592,2.11-3.934,2.6  c-0.475-0.715-2-1.842-2.578-2.462c-1.02-1.093-1.643-0.44-1.335-2.081c0.202-1.064,1.028-2.612,1.694-3.459  c0.741-0.942,0.784-1.469,1.107-2.545c0.741-2.483-1.131-3.001-1.172-5.094c-0.02-0.961,2.229-5.467,0.314-5.405  c-1.608,0.051-2.261,5.382-3.149,6.52c-0.761,0.971-1.812,0.916-2.369,2.189c-0.671,1.536,0.099,2.198,0.593,3.442  c0.417,1.051,0.379,2.285,0.043,3.391c-0.552,1.824-0.833,1.816-2.419,1.867c-0.505,0.017-2.081,0.021-2.557-0.045  c-1.029-0.143-0.677-0.76-1.38-1.362c-1.053-0.904-1.461-1.595-1.86-2.933c-0.349-1.17-0.387-2.653-1.058-3.707  c-0.865-1.363-2.059-1.218-3.288-1.911c-0.876-0.493-3.355-5.119-4.492-3.709c-0.659,0.818,2.744,4.319,3.01,5.267  c0.319,1.138-1.217,2.351-0.011,4.44c0.578,1.002,2.298,1.007,3.156,1.785c1.426,1.289,2.662,3.834,2.547,5.791  c-0.074,1.301-0.596,2.367-0.4,3.652c0.225,1.473,1.092,3.54,1.774,4.837c1.416,2.683,0.422,3.563-0.494,6.082  c-0.496,1.354-0.729,2.048,0.005,3.29c0.707,1.197,1.773,1.561,1.098,3.038c-0.564,1.229-1.638,1.508-1.774,3.121  c-0.106,1.265,0.569,2.262,0.298,3.497c-0.191,0.863-2.782,8.579-0.204,7.736c1.884-0.614,1.813-5.541,2.911-6.969  c0.839-1.088,1.451-2.447,1.65-3.902c0.156-1.151-0.117-2.402,0.472-3.332l1.647-1.422c1.397-0.914,3.332-2.828,4.2-4.525  c1.021-1.994,1.028-4.676,2.099-6.667c1.086-2.024,2.877-1.972,4.021-4.968c0.547-1.434-0.294-0.942,1.052-2.002  c0.754-0.59,1.785-1.06,2.646-1.473c1.71-0.824,4.527-0.804,5.734-2.445c0.784-1.068,0.197-1.789,1.289-2.82  c0.875-0.824,3.188-1.98,3.215-3.275C85.514,53.773,83.789,56.243,82.145,56.291z"/><text x="0" y="115" fill="#000000" font-size="5px" font-weight="bold" font-family="'Helvetica Neue', Helvetica, Arial-Unicode, Arial, Sans-serif">Created by Charlotte Vogel</text><text x="0" y="120" fill="#000000" font-size="5px" font-weight="bold" font-family="'Helvetica Neue', Helvetica, Arial-Unicode, Arial, Sans-serif">from the Noun Project</text></svg>